<svg width="18" height="23" viewBox="0 0 18 23" fill="none" xmlns="http://www.w3.org/2000/svg">
<path fill-rule="evenodd" clip-rule="evenodd" d="M1.92436e-07 22.2812V2.875C1.92436e-07 2.1125 0.302901 1.38124 0.842068 0.842068C1.38124 0.302901 2.1125 0 2.875 0L14.375 0C15.1375 0 15.8688 0.302901 16.4079 0.842068C16.9471 1.38124 17.25 2.1125 17.25 2.875V22.2812C17.2501 22.4061 17.2177 22.5287 17.156 22.6372C17.0942 22.7457 17.0053 22.8363 16.898 22.8999C16.7906 22.9636 16.6685 22.9982 16.5437 23.0004C16.419 23.0026 16.2957 22.9722 16.1863 22.9123L8.625 18.7867L1.06375 22.9123C0.954255 22.9722 0.831046 23.0026 0.706251 23.0004C0.581456 22.9982 0.459377 22.9636 0.352032 22.8999C0.244686 22.8363 0.155774 22.7457 0.0940478 22.6372C0.0323215 22.5287 -9.11286e-05 22.4061 1.92436e-07 22.2812ZM12.7276 8.41512C12.8626 8.28016 12.9384 8.09712 12.9384 7.90625C12.9384 7.71538 12.8626 7.53234 12.7276 7.39738C12.5927 7.26241 12.4096 7.18659 12.2188 7.18659C12.0279 7.18659 11.8448 7.26241 11.7099 7.39738L7.90625 11.2024L6.25887 9.55363C6.19205 9.4868 6.11271 9.43379 6.0254 9.39762C5.93809 9.36146 5.84451 9.34284 5.75 9.34284C5.65549 9.34284 5.56191 9.36146 5.4746 9.39762C5.38729 9.43379 5.30795 9.4868 5.24113 9.55363C5.1743 9.62045 5.12129 9.69979 5.08512 9.7871C5.04896 9.87441 5.03034 9.96799 5.03034 10.0625C5.03034 10.157 5.04896 10.2506 5.08512 10.3379C5.12129 10.4252 5.1743 10.5045 5.24113 10.5714L7.39738 12.7276C7.46414 12.7946 7.54346 12.8477 7.63078 12.8839C7.7181 12.9201 7.81171 12.9388 7.90625 12.9388C8.00079 12.9388 8.0944 12.9201 8.18172 12.8839C8.26904 12.8477 8.34836 12.7946 8.41512 12.7276L12.7276 8.41512Z" fill="#02FFD1"/>
</svg>
