<svg width="18" height="23" viewBox="0 0 18 23" fill="none" xmlns="http://www.w3.org/2000/svg">
<path d="M0 2.87505C0 2.11254 0.302906 1.38126 0.842081 0.842082C1.38126 0.302906 2.11254 0 2.87505 0L14.3752 0C15.1377 0 15.869 0.302906 16.4082 0.842082C16.9474 1.38126 17.2503 2.11254 17.2503 2.87505V22.2816C17.2502 22.4116 17.2149 22.5392 17.1481 22.6507C17.0812 22.7622 16.9854 22.8535 16.8708 22.9149C16.7562 22.9763 16.627 23.0054 16.4972 22.9992C16.3673 22.993 16.2416 22.9516 16.1333 22.8796L8.62514 18.833L1.11696 22.8796C1.00872 22.9516 0.88297 22.993 0.753106 22.9992C0.623242 23.0054 0.494124 22.9763 0.379505 22.9149C0.264886 22.8535 0.169059 22.7622 0.102228 22.6507C0.0353976 22.5392 6.71617e-05 22.4116 0 22.2816V2.87505ZM2.87505 1.43752C2.49379 1.43752 2.12815 1.58898 1.85856 1.85856C1.58898 2.12815 1.43752 2.49379 1.43752 2.87505V20.939L8.22695 17.371C8.34491 17.2925 8.48344 17.2507 8.62514 17.2507C8.76684 17.2507 8.90537 17.2925 9.02333 17.371L15.8128 20.939V2.87505C15.8128 2.49379 15.6613 2.12815 15.3917 1.85856C15.1221 1.58898 14.7565 1.43752 14.3752 1.43752H2.87505Z" fill="#02FFD1"/>
</svg>
