<svg width="33" height="26" viewBox="0 0 33 26" fill="none" xmlns="http://www.w3.org/2000/svg">
<path d="M30.525 9.75H24.4025C25.0568 11.2526 24.7696 13.0609 23.5259 14.2858L16.5 21.2052V23.5625C16.5 24.9087 17.6081 26 18.975 26H30.525C31.8919 26 33 24.9087 33 23.5625V12.1875C33 10.8413 31.8919 9.75 30.525 9.75ZM24.75 19.0938C24.0668 19.0938 23.5125 18.5479 23.5125 17.875C23.5125 17.2016 24.0668 16.6562 24.75 16.6562C25.4332 16.6562 25.9875 17.2016 25.9875 17.875C25.9875 18.5479 25.4332 19.0938 24.75 19.0938ZM22.359 9.61289L13.3392 0.729727C12.3513 -0.243242 10.7492 -0.243242 9.7613 0.729727L0.740953 9.61289C-0.246984 10.5859 -0.246984 12.1636 0.740953 13.1366L9.76078 22.0203C10.7487 22.9932 12.3508 22.9932 13.3387 22.0203L22.359 13.1371C23.347 12.1636 23.347 10.5859 22.359 9.61289V9.61289ZM4.95 12.5938C4.2668 12.5938 3.7125 12.0479 3.7125 11.375C3.7125 10.7016 4.2668 10.1562 4.95 10.1562C5.6332 10.1562 6.1875 10.7016 6.1875 11.375C6.1875 12.0479 5.6332 12.5938 4.95 12.5938ZM11.55 19.0938C10.8668 19.0938 10.3125 18.5479 10.3125 17.875C10.3125 17.2016 10.8668 16.6562 11.55 16.6562C12.2332 16.6562 12.7875 17.2016 12.7875 17.875C12.7875 18.5479 12.2332 19.0938 11.55 19.0938ZM11.55 12.5938C10.8668 12.5938 10.3125 12.0479 10.3125 11.375C10.3125 10.7016 10.8668 10.1562 11.55 10.1562C12.2332 10.1562 12.7875 10.7016 12.7875 11.375C12.7875 12.0479 12.2332 12.5938 11.55 12.5938ZM11.55 6.09375C10.8668 6.09375 10.3125 5.54785 10.3125 4.875C10.3125 4.20164 10.8668 3.65625 11.55 3.65625C12.2332 3.65625 12.7875 4.20164 12.7875 4.875C12.7875 5.54785 12.2332 6.09375 11.55 6.09375ZM18.15 12.5938C17.4668 12.5938 16.9125 12.0479 16.9125 11.375C16.9125 10.7016 17.4668 10.1562 18.15 10.1562C18.8332 10.1562 19.3875 10.7016 19.3875 11.375C19.3875 12.0479 18.8332 12.5938 18.15 12.5938Z" fill="white"/>
</svg>
