<svg width="32" height="28" viewBox="0 0 32 28" fill="none" xmlns="http://www.w3.org/2000/svg">
<path d="M16.2614 1.82219C16.0242 1.73806 15.7596 1.73806 15.5224 1.82219L3.66705 6.0196L15.8919 10.3471L28.1167 6.0196L16.2614 1.82219ZM29.7973 7.31909L16.8851 11.8911V25.8215L29.7973 21.2495V7.32085V7.31909ZM14.8986 25.8232V11.8893L1.98649 7.31909V21.2513L14.8986 25.8232ZM14.7854 0.188594C15.4957 -0.0628648 16.2881 -0.0628648 16.9984 0.188594L31.16 5.20368C31.3441 5.269 31.502 5.38163 31.6131 5.52704C31.7243 5.67246 31.7837 5.84402 31.7838 6.0196V21.2513C31.7835 21.6026 31.6644 21.9459 31.4417 22.2368C31.2189 22.5276 30.9029 22.7527 30.5343 22.8831L16.2614 27.9369C16.0242 28.021 15.7596 28.021 15.5224 27.9369L1.25149 22.8831C0.882499 22.753 0.566034 22.528 0.342951 22.2371C0.119868 21.9462 0.00040987 21.6028 0 21.2513L0 6.0196C4.61658e-05 5.84402 0.0594828 5.67246 0.170653 5.52704C0.281823 5.38163 0.439635 5.269 0.623757 5.20368L14.7854 0.188594Z" fill="white"/>
<path d="M18.8954 3.50603C18.0452 2.65124 16.5157 2.60252 15.4859 3.39742L16.1027 4.01751C16.7205 3.54062 17.6383 3.56986 18.1483 4.08267C18.6584 4.59549 18.5707 5.40088 17.9529 5.87776C17.5536 6.18598 17.2657 6.1594 16.6539 6.06875C16.4263 6.03508 16.1694 5.99718 15.8881 5.98792C14.9938 5.95913 14.5152 6.33627 14.4783 6.36752L13.7312 6.94416L14.348 7.56424L15.0984 6.98501C15.1073 6.97809 15.33 6.81886 15.796 6.834C16.0142 6.84096 16.2297 6.87304 16.4378 6.90368C17.0694 6.99706 17.7852 7.10332 18.5696 6.49785C19.5994 5.70295 19.7456 4.36082 18.8954 3.50603ZM13.3577 7.23248L13.9744 7.85256L13.2274 8.42921L12.6107 7.80912L13.3577 7.23248Z" fill="white"/>
<path d="M22.4666 12.0709C21.2057 12.1681 20.292 13.3768 20.4299 14.7653L21.3446 14.6948C21.2619 13.8618 21.8101 13.1365 22.5666 13.0782C23.3231 13.0199 24.006 13.6503 24.0887 14.4833C24.1422 15.0217 23.9543 15.2372 23.5242 15.6712C23.3642 15.8328 23.1836 16.0152 23.0154 16.2372C22.4809 16.9437 22.552 17.5944 22.5594 17.6461L22.6594 18.6534L23.5741 18.5829L23.4737 17.5711C23.4725 17.559 23.4541 17.2676 23.7328 16.8995C23.8631 16.7271 24.0148 16.5743 24.1609 16.4265C24.6049 15.9782 25.1084 15.4705 25.0034 14.4128C24.8655 13.0243 23.7275 11.9738 22.4666 12.0709ZM22.7094 19.157L23.6242 19.0865L23.7242 20.0938L22.8095 20.1643L22.7094 19.157Z" fill="white"/>
<path d="M8.5016 12.1975C7.23695 12.1514 6.15484 13.2469 6.08941 14.6395L7.00682 14.673C7.04607 13.8375 7.69544 13.1801 8.45414 13.2078C9.21284 13.2354 9.79831 13.9379 9.75906 14.7733C9.73369 15.3133 9.51604 15.5057 9.0262 15.8876C8.84399 16.0297 8.63841 16.1902 8.43919 16.3914C7.80625 17.0317 7.78199 17.685 7.78184 17.7372L7.73437 18.7474L8.65179 18.7809L8.69946 17.7661C8.70003 17.7539 8.72428 17.4629 9.05424 17.1293C9.20862 16.973 9.38127 16.8387 9.54774 16.7086C10.0533 16.3142 10.6266 15.8675 10.6765 14.8068C10.7419 13.4142 9.76625 12.2436 8.5016 12.1975ZM7.71064 19.2525L8.62805 19.286L8.58059 20.2962L7.66318 20.2628L7.71064 19.2525Z" fill="white"/>
</svg>
