<svg width="14" height="13" viewBox="0 0 14 13" fill="none" xmlns="http://www.w3.org/2000/svg">
<path d="M5.9656 11.1182C7.26694 11.118 8.53078 10.7051 9.55588 9.94526L12.7788 13L13.8155 12.0174L10.5926 8.96269C11.3946 7.991 11.8306 6.79285 11.8309 5.55912C11.8309 2.49396 9.19956 0 5.9656 0C2.73163 0 0.100327 2.49396 0.100327 5.55912C0.100327 8.62428 2.73163 11.1182 5.9656 11.1182ZM5.9656 1.38978C8.39162 1.38978 10.3646 3.25973 10.3646 5.55912C10.3646 7.85851 8.39162 9.72846 5.9656 9.72846C3.53958 9.72846 1.56664 7.85851 1.56664 5.55912C1.56664 3.25973 3.53958 1.38978 5.9656 1.38978Z" fill="black" fill-opacity="0.5"/>
</svg>
