<svg width="14" height="13" viewBox="0 0 14 13" fill="none" xmlns="http://www.w3.org/2000/svg">
<path d="M5.86527 11.1182C7.16661 11.118 8.43045 10.7051 9.45555 9.94526L12.6785 13L13.7152 12.0174L10.4922 8.96269C11.2943 7.991 11.7302 6.79285 11.7305 5.55912C11.7305 2.49396 9.09924 0 5.86527 0C2.63131 0 0 2.49396 0 5.55912C0 8.62428 2.63131 11.1182 5.86527 11.1182ZM5.86527 1.38978C8.2913 1.38978 10.2642 3.25973 10.2642 5.55912C10.2642 7.85851 8.2913 9.72846 5.86527 9.72846C3.43925 9.72846 1.46632 7.85851 1.46632 5.55912C1.46632 3.25973 3.43925 1.38978 5.86527 1.38978Z" fill="white"/>
</svg>
