<svg width="17" height="20" viewBox="0 0 17 20" fill="none" xmlns="http://www.w3.org/2000/svg">
<path d="M5.18332 7.12708C5.35516 7.12708 5.51996 7.19535 5.64146 7.31685C5.76297 7.43836 5.83123 7.60316 5.83123 7.775V15.55C5.83123 15.7218 5.76297 15.8866 5.64146 16.0081C5.51996 16.1297 5.35516 16.1979 5.18332 16.1979C5.01148 16.1979 4.84668 16.1297 4.72517 16.0081C4.60366 15.8866 4.5354 15.7218 4.5354 15.55V7.775C4.5354 7.60316 4.60366 7.43836 4.72517 7.31685C4.84668 7.19535 5.01148 7.12708 5.18332 7.12708ZM8.4229 7.12708C8.59474 7.12708 8.75954 7.19535 8.88105 7.31685C9.00256 7.43836 9.07082 7.60316 9.07082 7.775V15.55C9.07082 15.7218 9.00256 15.8866 8.88105 16.0081C8.75954 16.1297 8.59474 16.1979 8.4229 16.1979C8.25106 16.1979 8.08626 16.1297 7.96475 16.0081C7.84325 15.8866 7.77498 15.7218 7.77498 15.55V7.775C7.77498 7.60316 7.84325 7.43836 7.96475 7.31685C8.08626 7.19535 8.25106 7.12708 8.4229 7.12708ZM12.3104 7.775C12.3104 7.60316 12.2421 7.43836 12.1206 7.31685C11.9991 7.19535 11.8343 7.12708 11.6625 7.12708C11.4906 7.12708 11.3258 7.19535 11.2043 7.31685C11.0828 7.43836 11.0146 7.60316 11.0146 7.775V15.55C11.0146 15.7218 11.0828 15.8866 11.2043 16.0081C11.3258 16.1297 11.4906 16.1979 11.6625 16.1979C11.8343 16.1979 11.9991 16.1297 12.1206 16.0081C12.2421 15.8866 12.3104 15.7218 12.3104 15.55V7.775Z" fill="#CC2E2E"/>
<path fill-rule="evenodd" clip-rule="evenodd" d="M16.8458 3.8875C16.8458 4.23118 16.7093 4.56078 16.4663 4.80379C16.2233 5.04681 15.8937 5.18333 15.55 5.18333H14.9021V16.8458C14.9021 17.5332 14.629 18.1924 14.143 18.6784C13.657 19.1644 12.9978 19.4375 12.3104 19.4375H4.53542C3.84806 19.4375 3.18886 19.1644 2.70283 18.6784C2.2168 18.1924 1.94375 17.5332 1.94375 16.8458V5.18333H1.29583C0.952157 5.18333 0.622557 5.04681 0.379541 4.80379C0.136525 4.56078 0 4.23118 0 3.8875V2.59167C0 2.24799 0.136525 1.91839 0.379541 1.67537C0.622557 1.43236 0.952157 1.29583 1.29583 1.29583H5.83125C5.83125 0.952157 5.96778 0.622557 6.21079 0.379541C6.45381 0.136525 6.78341 0 7.12708 0L9.71875 0C10.0624 0 10.392 0.136525 10.635 0.379541C10.8781 0.622557 11.0146 0.952157 11.0146 1.29583H15.55C15.8937 1.29583 16.2233 1.43236 16.4663 1.67537C16.7093 1.91839 16.8458 2.24799 16.8458 2.59167V3.8875ZM3.39249 5.18333L3.23958 5.25979V16.8458C3.23958 17.1895 3.37611 17.5191 3.61912 17.7621C3.86214 18.0051 4.19174 18.1417 4.53542 18.1417H12.3104C12.6541 18.1417 12.9837 18.0051 13.2267 17.7621C13.4697 17.5191 13.6062 17.1895 13.6062 16.8458V5.25979L13.4533 5.18333H3.39249ZM1.29583 3.8875V2.59167H15.55V3.8875H1.29583Z" fill="#CC2E2E"/>
</svg>
